<svg width="29" height="29" viewBox="0 0 29 29" fill="none" xmlns="http://www.w3.org/2000/svg">
<path fill-rule="evenodd" clip-rule="evenodd" d="M14.5 27.5C21.6797 27.5 27.5 21.6797 27.5 14.5C27.5 7.3203 21.6797 1.5 14.5 1.5C7.3203 1.5 1.5 7.3203 1.5 14.5C1.5 21.6797 7.3203 27.5 14.5 27.5ZM14.5 29C22.5081 29 29 22.5081 29 14.5C29 6.49187 22.5081 0 14.5 0C6.49187 0 0 6.49187 0 14.5C0 22.5081 6.49187 29 14.5 29ZM16.359 8.17948C16.359 9.00083 15.6931 9.66666 14.8718 9.66666C14.0504 9.66666 13.3846 9.00083 13.3846 8.17948C13.3846 7.35814 14.0504 6.6923 14.8718 6.6923C15.6931 6.6923 16.359 7.35814 16.359 8.17948ZM14.134 11.6267C14.4823 11.5196 14.7788 11.4285 14.9727 11.3681C15.6778 11.1487 15.854 11.1395 15.854 11.1624C15.5603 13.8138 14.9727 19.2539 14.9727 19.8024C14.9727 20.4881 15.4134 20.6939 15.854 19.9396C16.2066 19.3361 16.4905 18.7281 16.5884 18.4996L17.1025 18.7738C16.7843 19.7339 15.7365 21.7636 14.0915 22.2024C12.0351 22.751 11.8148 21.0367 11.9617 19.8024C11.9933 19.5367 12.0351 19.1885 12.0827 18.7918C12.2564 17.3455 12.5074 15.2558 12.6226 14.1795C12.7695 12.8081 12.0351 12.8767 11.7413 12.9453L11.1538 13.0824L11.2273 12.5338C11.9371 12.3018 13.2157 11.9089 14.134 11.6267Z" fill="white"/>
</svg>
